<mxfile host="app.diagrams.net" modified="2024-07-16T20:06:30.580Z" agent="Mozilla/5.0 (Windows NT 10.0; Win64; x64) AppleWebKit/537.36 (KHTML, like Gecko) Chrome/126.0.0.0 Safari/537.36 Edg/126.0.0.0" etag="qbFOwojrZXfH_e6X-UJA" version="24.6.5" type="github">
  <diagram name="Page-1" id="Bwrql6FO_Pp4iYdtCRvU">
    <mxGraphModel dx="664" dy="775" grid="1" gridSize="10" guides="1" tooltips="1" connect="1" arrows="1" fold="1" page="1" pageScale="1" pageWidth="850" pageHeight="1100" math="0" shadow="0">
      <root>
        <mxCell id="0" />
        <mxCell id="1" parent="0" />
        <mxCell id="jd5DZ7lS3QpHcR33lxbT-2" value="" style="edgeStyle=orthogonalEdgeStyle;rounded=0;orthogonalLoop=1;jettySize=auto;html=1;" edge="1" parent="1" source="Y5ReOfjwJdekTtEq4LtW-1" target="jd5DZ7lS3QpHcR33lxbT-1">
          <mxGeometry relative="1" as="geometry" />
        </mxCell>
        <mxCell id="jd5DZ7lS3QpHcR33lxbT-3" value="" style="edgeStyle=orthogonalEdgeStyle;rounded=0;orthogonalLoop=1;jettySize=auto;html=1;" edge="1" parent="1" source="Y5ReOfjwJdekTtEq4LtW-1" target="jd5DZ7lS3QpHcR33lxbT-1">
          <mxGeometry relative="1" as="geometry" />
        </mxCell>
        <mxCell id="Y5ReOfjwJdekTtEq4LtW-1" value="START" style="html=1;dashed=0;whiteSpace=wrap;shape=mxgraph.dfd.start" parent="1" vertex="1">
          <mxGeometry x="280" y="180" width="170" height="30" as="geometry" />
        </mxCell>
        <mxCell id="jd5DZ7lS3QpHcR33lxbT-1" value="int SCP = 0&lt;div&gt;int MCP = 1&lt;/div&gt;&lt;div&gt;int LCP = 2&lt;/div&gt;" style="html=1;dashed=0;whiteSpace=wrap;" vertex="1" parent="1">
          <mxGeometry x="340" y="270" width="170" height="60" as="geometry" />
        </mxCell>
      </root>
    </mxGraphModel>
  </diagram>
</mxfile>
